HIERARCHY
ROOT HMD
{
	OFFSET 0.0 0.0 0.0
	CHANNELS 6 Xposition Yposition Zposition Zrotation Xrotation Yrotation
	JOINT Head
	{
		OFFSET 0.0 0.0 10.0
		CHANNELS 3 Zrotation Xrotation Yrotation
		JOINT Neck
		{
			OFFSET 0.0 -10.0 0.0
			CHANNELS 3 Zrotation Xrotation Yrotation
			JOINT Chest
			{
				OFFSET 0.0 -32.0 0.0
				CHANNELS 3 Zrotation Xrotation Yrotation
				JOINT Waist
				{
					OFFSET 0.0 -20.000002 0.0
					CHANNELS 3 Zrotation Xrotation Yrotation
					JOINT Hip
					{
						OFFSET 0.0 -4.0 0.0
						CHANNELS 3 Zrotation Xrotation Yrotation
						JOINT Left-Hip
						{
							OFFSET -13.0 0.0 0.0
							CHANNELS 3 Zrotation Xrotation Yrotation
							JOINT Left-Knee
							{
								OFFSET 0.0 -42.0 0.0
								CHANNELS 3 Zrotation Xrotation Yrotation
								JOINT Left-Ankle
								{
									OFFSET 0.0 -50.0 5.0
									CHANNELS 3 Zrotation Xrotation Yrotation
									JOINT Left-Foot
									{
										OFFSET 0.0 0.0 -5.0
										CHANNELS 3 Zrotation Xrotation Yrotation
										End Site
										{
											OFFSET 0.0 0.0 -0.0
										}
									}
								}
							}
						}
						JOINT Right-Hip
						{
							OFFSET 13.0 0.0 0.0
							CHANNELS 3 Zrotation Xrotation Yrotation
							JOINT Right-Knee
							{
								OFFSET 0.0 -42.0 0.0
								CHANNELS 3 Zrotation Xrotation Yrotation
								JOINT Right-Ankle
								{
									OFFSET 0.0 -50.0 5.0
									CHANNELS 3 Zrotation Xrotation Yrotation
									JOINT Right-Foot
									{
										OFFSET 0.0 0.0 -5.0
										CHANNELS 3 Zrotation Xrotation Yrotation
										End Site
										{
											OFFSET 0.0 0.0 -0.0
										}
									}
								}
							}
						}
					}
				}
			}
		}
	}
}
MOTION
Frames: 12                
Frame Time: 0.01
0.0 180.0 0.0 -0.0 0.0 -0.0 -0.0 0.0 -0.0 -156.69714 -66.86353 46.418343 -4.268868E-7 1.4941038E-6 4.268868E-7 90.749855 63.832172 -48.719494 -121.89939 24.387121 -38.887535 10.22602 13.768427 -27.905224 0.0 0.0 -3.4150944E-6 0.0 0.0 -3.4150944E-6 0.0 0.0 -3.4150944E-6 -69.36618 -30.914839 41.760967 -0.0 0.0 -0.0 -94.71242 4.442382 -93.10307 -5.1226416E-6 1.7075472E-6 -1.7075471E-6
0.0 180.0 0.0 -0.0 0.0 -0.0 -0.0 0.0 -0.0 -156.69714 -66.86353 46.418343 -4.268868E-7 1.4941038E-6 4.268868E-7 90.749855 63.832172 -48.719494 -121.89939 24.387121 -38.887535 10.22602 13.768427 -27.905224 0.0 0.0 -3.4150944E-6 0.0 0.0 -3.4150944E-6 0.0 0.0 -3.4150944E-6 -69.36618 -30.914839 41.760967 -0.0 0.0 -0.0 -94.71242 4.442382 -93.10307 -5.1226416E-6 1.7075472E-6 -1.7075471E-6
0.0 180.0 0.0 -0.0 0.0 -0.0 -0.0 0.0 -0.0 -156.69714 -66.86353 46.418343 -4.268868E-7 1.4941038E-6 4.268868E-7 90.749855 63.832172 -48.719494 -121.89939 24.387121 -38.887535 10.22602 13.768427 -27.905224 0.0 0.0 -3.4150944E-6 0.0 0.0 -3.4150944E-6 0.0 0.0 -3.4150944E-6 -69.36618 -30.914839 41.760967 -0.0 0.0 -0.0 -94.71242 4.442382 -93.10307 -5.1226416E-6 1.7075472E-6 -1.7075471E-6
0.0 180.0 0.0 -0.0 0.0 -0.0 -0.0 0.0 -0.0 -156.69714 -66.86353 46.418343 -4.268868E-7 1.4941038E-6 4.268868E-7 90.749855 63.832172 -48.719494 -121.89939 24.387121 -38.887535 10.22602 13.768427 -27.905224 0.0 0.0 -3.4150944E-6 0.0 0.0 -3.4150944E-6 0.0 0.0 -3.4150944E-6 -69.36618 -30.914839 41.760967 -0.0 0.0 -0.0 -94.71242 4.442382 -93.10307 -5.1226416E-6 1.7075472E-6 -1.7075471E-6
0.0 180.0 0.0 -0.0 0.0 -0.0 -0.0 0.0 -0.0 -156.69714 -66.86353 46.418343 -4.268868E-7 1.4941038E-6 4.268868E-7 90.749855 63.832172 -48.719494 -121.89939 24.387121 -38.887535 10.22602 13.768427 -27.905224 0.0 0.0 -3.4150944E-6 0.0 0.0 -3.4150944E-6 0.0 0.0 -3.4150944E-6 -69.36618 -30.914839 41.760967 -0.0 0.0 -0.0 -94.71242 4.442382 -93.10307 -5.1226416E-6 1.7075472E-6 -1.7075471E-6
0.0 180.0 0.0 -0.0 0.0 -0.0 -0.0 0.0 -0.0 -156.69714 -66.86353 46.418343 -4.268868E-7 1.4941038E-6 4.268868E-7 90.749855 63.832172 -48.719494 -121.89939 24.387121 -38.887535 10.22602 13.768427 -27.905224 0.0 0.0 -3.4150944E-6 0.0 0.0 -3.4150944E-6 0.0 0.0 -3.4150944E-6 -69.36618 -30.914839 41.760967 -0.0 0.0 -0.0 -94.71242 4.442382 -93.10307 -5.1226416E-6 1.7075472E-6 -1.7075471E-6
0.0 180.0 0.0 -0.0 0.0 -0.0 -0.0 0.0 -0.0 -156.69714 -66.86353 46.418343 -4.268868E-7 1.4941038E-6 4.268868E-7 90.749855 63.832172 -48.719494 -121.89939 24.387121 -38.887535 10.22602 13.768427 -27.905224 0.0 0.0 -3.4150944E-6 0.0 0.0 -3.4150944E-6 0.0 0.0 -3.4150944E-6 -69.36618 -30.914839 41.760967 -0.0 0.0 -0.0 -94.71242 4.442382 -93.10307 -5.1226416E-6 1.7075472E-6 -1.7075471E-6
0.0 180.0 0.0 -0.0 0.0 -0.0 -0.0 0.0 -0.0 -156.69714 -66.86353 46.418343 -4.268868E-7 1.4941038E-6 4.268868E-7 90.749855 63.832172 -48.719494 -121.89939 24.387121 -38.887535 10.22602 13.768427 -27.905224 0.0 0.0 -3.4150944E-6 0.0 0.0 -3.4150944E-6 0.0 0.0 -3.4150944E-6 -69.36618 -30.914839 41.760967 -0.0 0.0 -0.0 -94.71242 4.442382 -93.10307 -5.1226416E-6 1.7075472E-6 -1.7075471E-6
0.0 180.0 0.0 -0.0 0.0 -0.0 -0.0 0.0 -0.0 -156.69714 -66.86353 46.418343 -4.268868E-7 1.4941038E-6 4.268868E-7 90.782104 63.837547 -48.740585 -121.90114 24.401306 -38.896217 10.22602 13.768427 -27.905224 0.0 0.0 -3.4150944E-6 0.0 0.0 -3.4150944E-6 0.0 0.0 -3.4150944E-6 -69.36618 -30.914839 41.760967 -0.0 0.0 -0.0 -94.71242 4.442382 -93.10307 -5.1226416E-6 1.7075472E-6 -1.7075471E-6
0.0 180.0 0.0 -0.0 0.0 -0.0 -0.0 0.0 -0.0 -156.69714 -66.86353 46.418343 -4.268868E-7 1.4941038E-6 4.268868E-7 90.782104 63.837547 -48.740585 -121.90114 24.401306 -38.896217 10.22602 13.768427 -27.905224 0.0 0.0 -3.4150944E-6 0.0 0.0 -3.4150944E-6 0.0 0.0 -3.4150944E-6 -69.36618 -30.914839 41.760967 -0.0 0.0 -0.0 -94.71242 4.442382 -93.10307 -5.1226416E-6 1.7075472E-6 -1.7075471E-6
0.0 180.0 0.0 -0.0 0.0 -0.0 -0.0 0.0 -0.0 -156.69714 -66.86353 46.418343 -4.268868E-7 1.4941038E-6 4.268868E-7 90.782104 63.837547 -48.740585 -121.90114 24.401306 -38.896217 10.22602 13.768427 -27.905224 0.0 0.0 -3.4150944E-6 0.0 0.0 -3.4150944E-6 0.0 0.0 -3.4150944E-6 -69.36618 -30.914839 41.760967 -0.0 0.0 -0.0 -94.71242 4.442382 -93.10307 -5.1226416E-6 1.7075472E-6 -1.7075471E-6
0.0 180.0 0.0 -0.0 0.0 -0.0 -0.0 0.0 -0.0 -156.69714 -66.86353 46.418343 -4.268868E-7 1.4941038E-6 4.268868E-7 90.782104 63.837547 -48.740585 -121.90114 24.401306 -38.896217 10.22602 13.768427 -27.905224 0.0 0.0 -3.4150944E-6 0.0 0.0 -3.4150944E-6 0.0 0.0 -3.4150944E-6 -69.36618 -30.914839 41.760967 -0.0 0.0 -0.0 -94.71242 4.442382 -93.10307 -5.1226416E-6 1.7075472E-6 -1.7075471E-6
